<svg aria-roledescription="architecture" role="graphics-document document" viewBox="-189.59327697753906 -65.5 450.1865539550781 262" style="max-width: 450.187px; background-color: transparent;" xmlns:xlink="http://www.w3.org/1999/xlink" xmlns="http://www.w3.org/2000/svg" width="100%" id="my-svg"><style>#my-svg{font-family:"trebuchet ms",verdana,arial,sans-serif;font-size:16px;fill:#ccc;}@keyframes edge-animation-frame{from{stroke-dashoffset:0;}}@keyframes dash{to{stroke-dashoffset:0;}}#my-svg .edge-animation-slow{stroke-dasharray:9,5!important;stroke-dashoffset:900;animation:dash 50s linear infinite;stroke-linecap:round;}#my-svg .edge-animation-fast{stroke-dasharray:9,5!important;stroke-dashoffset:900;animation:dash 20s linear infinite;stroke-linecap:round;}#my-svg .error-icon{fill:#a44141;}#my-svg .error-text{fill:#ddd;stroke:#ddd;}#my-svg .edge-thickness-normal{stroke-width:1px;}#my-svg .edge-thickness-thick{stroke-width:3.5px;}#my-svg .edge-pattern-solid{stroke-dasharray:0;}#my-svg .edge-thickness-invisible{stroke-width:0;fill:none;}#my-svg .edge-pattern-dashed{stroke-dasharray:3;}#my-svg .edge-pattern-dotted{stroke-dasharray:2;}#my-svg .marker{fill:lightgrey;stroke:lightgrey;}#my-svg .marker.cross{stroke:lightgrey;}#my-svg svg{font-family:"trebuchet ms",verdana,arial,sans-serif;font-size:16px;}#my-svg p{margin:0;}#my-svg .edge{stroke-width:3;stroke:lightgrey;fill:none;}#my-svg .arrow{fill:lightgrey;}#my-svg .node-bkg{fill:none;stroke:#cccccc;stroke-width:2px;stroke-dasharray:8;}#my-svg .node-icon-text{display:flex;align-items:center;}#my-svg .node-icon-text&gt;div{color:#fff;margin:1px;height:fit-content;text-align:center;overflow:hidden;display:-webkit-box;-webkit-box-orient:vertical;}#my-svg :root{--mermaid-font-family:"trebuchet ms",verdana,arial,sans-serif;}</style><g/><g class="architecture-edges"><g><path class="edge" d="M -22.59328288059254,57 L 37.749999999999986,57 L98.09328288059251,57"/><polygon class="arrow" transform="translate(-24.59328288059254,50.333333333333336)" points="0,6.666666666666667 13.333333333333334,0 13.333333333333334,13.333333333333334"/><polygon class="arrow" transform="translate(86.75994954725918,50.333333333333336)" points="13.333333333333334,6.666666666666667 0,13.333333333333334 0,0"/><g transform="translate(37.749999999999986, 57)" text-anchor="middle" dominant-baseline="middle" alignment-baseline="middle" dy="1em"><g><rect style="stroke: none" class="background"/><text style="" y="-10.1"><tspan dy="1.1em" y="-0.1em" x="0" class="text-outer-tspan"><tspan font-weight="normal" class="text-inner-tspan" font-style="normal">req</tspan><tspan font-weight="normal" class="text-inner-tspan" font-style="normal"> resp</tspan></tspan></text></g></g></g></g><g class="architecture-services"><g transform="translate(98.09328288059251,17)" class="architecture-service"><g transform="translate(40, 80)" text-anchor="middle" dominant-baseline="middle" alignment-baseline="middle" dy="1em"><g><rect style="stroke: none" class="background"/><text style="" y="-10.1"><tspan dy="1.1em" y="-0.1em" x="0" class="text-outer-tspan"><tspan font-weight="normal" class="text-inner-tspan" font-style="normal">service</tspan></tspan></text></g></g><g><g><svg viewBox="0 0 256 256" height="80" width="80" xmlns="http://www.w3.org/2000/svg"><defs><linearGradient y2="0%" y1="100%" x2="100%" x1="0%" id="IconifyId196563129417bf2d60"><stop stop-color="#C8511B" offset="0%"/><stop stop-color="#F90" offset="100%"/></linearGradient></defs><path d="M0 0h256v256H0z" fill="url(#IconifyId196563129417bf2d60)"/><path d="M89.624 211.2H49.89l43.945-91.853l19.912 40.992zm7.079-100.63a3.22 3.22 0 0 0-2.887-1.805h-.01a3.2 3.2 0 0 0-2.886 1.82L41.913 213.022a3.203 3.203 0 0 0 2.893 4.58l46.848-.001a3.21 3.21 0 0 0 2.9-1.83l25.65-54.08a3.18 3.18 0 0 0-.016-2.762zM207.985 211.2h-39.477L105.174 78.624a3.21 3.21 0 0 0-2.897-1.824h-25.83l.03-32h50.626l63.042 132.573a3.21 3.21 0 0 0 2.897 1.827h14.943zm3.208-38.4h-16.121L132.03 40.227a3.21 3.21 0 0 0-2.9-1.827H73.273a3.206 3.206 0 0 0-3.208 3.197l-.035 38.4c0 .851.333 1.664.94 2.265c.6.602 1.414.938 2.267.938h27.017l63.337 132.576a3.2 3.2 0 0 0 2.893 1.824h44.709a3.203 3.203 0 0 0 3.207-3.2V176c0-1.766-1.434-3.2-3.207-3.2" fill="#FFF"/></svg></g></g></g><g transform="translate(-102.59328288059254,17)" class="architecture-service"><g transform="translate(40, 80)" text-anchor="middle" dominant-baseline="middle" alignment-baseline="middle" dy="1em"><g><rect style="stroke: none" class="background"/><text style="" y="-10.1"><tspan dy="1.1em" y="-0.1em" x="0" class="text-outer-tspan"><tspan font-weight="normal" class="text-inner-tspan" font-style="normal">api</tspan><tspan font-weight="normal" class="text-inner-tspan" font-style="normal"> gateway</tspan></tspan></text></g></g><g><g><svg viewBox="0 0 256 256" height="80" width="80" xmlns="http://www.w3.org/2000/svg"><defs><linearGradient y2="0%" y1="100%" x2="100%" x1="0%" id="IconifyId196563129417bf2d61"><stop stop-color="#B0084D" offset="0%"/><stop stop-color="#FF4F8B" offset="100%"/></linearGradient></defs><path d="M0 0h256v256H0z" fill="url(#IconifyId196563129417bf2d61)"/><path d="M109.008 178.024h9.392v-6.455h-9.392zm15.792 0h9.6v-6.455h-9.6zM86.4 46.814L44.8 67.463v128.356l41.6 14.068zm6.4 40.845v83.91h9.6v6.455h-9.6v36.349a3.24 3.24 0 0 1-1.331 2.62a3.18 3.18 0 0 1-2.887.44l-48-16.23a3.23 3.23 0 0 1-2.182-3.06V65.452c0-1.226.694-2.353 1.789-2.895l48-23.824a3.16 3.16 0 0 1 3.1.155a3.23 3.23 0 0 1 1.511 2.74v39.576h9.6v6.455zm48 90.365h9.6v-6.455h-9.6zm.208-90.365h9.392v-6.455h-9.392zm-16 0h9.392v-6.455h-9.392zm-16 0h9.392v-6.455h-9.392zM211.2 67.463l-41.6-20.649v163.073l41.6-14.068zm6.4 130.68a3.23 3.23 0 0 1-2.182 3.06l-48 16.23a3.17 3.17 0 0 1-2.887-.44a3.24 3.24 0 0 1-1.331-2.62v-36.35h-6.192v-6.454h6.192v-83.91h-6.192v-6.455h6.192V41.628c0-1.117.573-2.153 1.51-2.74a3.16 3.16 0 0 1 3.101-.155l48 23.824a3.23 3.23 0 0 1 1.789 2.895zm-80.211-89.962l-5.978-2.317l-16 41.955l5.978 2.317zm21.673 20.487a3.243 3.243 0 0 0 0-4.563l-12.8-12.91l-4.524 4.564l10.537 10.628l-10.537 10.627l4.524 4.564zm-49.324 12.91l-12.8-12.91a3.243 3.243 0 0 1 0-4.563l12.8-12.91l4.524 4.564l-10.537 10.628l10.537 10.627z" fill="#FFF"/></svg></g></g></g></g><g class="architecture-groups"><rect class="node-bkg" height="182" width="370.1865657611851" y="-25.5" x="-149.59328288059254"/><g/></g><style>svg {
    margin-top: -15%;
}
svg path {
    filter: grayscale(100%) brightness(1.5) contrast(1.5);
}

.architecture-service&gt;g&gt;g&gt;svg&gt;rect,
.architecture-service&gt;g&gt;g&gt;svg&gt;g&gt;rect:first-child,
.architecture-service svg path[d^="M0 0h"] {
    fill: transparent !important;
    opacity: 0.2 !important;
}

.architecture-service path:not([d^="M0 0h"]) {
    stroke: white;
}

.node-bkg {
    stroke-dasharray: none !important;
    stroke: transparent !important;
}</style></svg>