<svg aria-roledescription="architecture" role="graphics-document document" viewBox="-280.9365234375 -65.5 650.873046875 262" style="max-width: 650.873px; background-color: transparent;" xmlns:xlink="http://www.w3.org/1999/xlink" xmlns="http://www.w3.org/2000/svg" width="100%" id="my-svg"><style>#my-svg{font-family:"trebuchet ms",verdana,arial,sans-serif;font-size:16px;fill:#ccc;}@keyframes edge-animation-frame{from{stroke-dashoffset:0;}}@keyframes dash{to{stroke-dashoffset:0;}}#my-svg .edge-animation-slow{stroke-dasharray:9,5!important;stroke-dashoffset:900;animation:dash 50s linear infinite;stroke-linecap:round;}#my-svg .edge-animation-fast{stroke-dasharray:9,5!important;stroke-dashoffset:900;animation:dash 20s linear infinite;stroke-linecap:round;}#my-svg .error-icon{fill:#a44141;}#my-svg .error-text{fill:#ddd;stroke:#ddd;}#my-svg .edge-thickness-normal{stroke-width:1px;}#my-svg .edge-thickness-thick{stroke-width:3.5px;}#my-svg .edge-pattern-solid{stroke-dasharray:0;}#my-svg .edge-thickness-invisible{stroke-width:0;fill:none;}#my-svg .edge-pattern-dashed{stroke-dasharray:3;}#my-svg .edge-pattern-dotted{stroke-dasharray:2;}#my-svg .marker{fill:lightgrey;stroke:lightgrey;}#my-svg .marker.cross{stroke:lightgrey;}#my-svg svg{font-family:"trebuchet ms",verdana,arial,sans-serif;font-size:16px;}#my-svg p{margin:0;}#my-svg .edge{stroke-width:3;stroke:lightgrey;fill:none;}#my-svg .arrow{fill:lightgrey;}#my-svg .node-bkg{fill:none;stroke:#cccccc;stroke-width:2px;stroke-dasharray:8;}#my-svg .node-icon-text{display:flex;align-items:center;}#my-svg .node-icon-text&gt;div{color:#fff;margin:1px;height:fit-content;text-align:center;overflow:hidden;display:-webkit-box;-webkit-box-orient:vertical;}#my-svg :root{--mermaid-font-family:"trebuchet ms",verdana,arial,sans-serif;}</style><g/><g class="architecture-edges"><g><path class="edge" d="M -118.43652784647554,56.99999999999999 L -58.0932639232378,56.99999999999999 L2.249999999999943,56.99999999999999"/><polygon class="arrow" transform="translate(-9.08333333333339,50.33333333333333)" points="13.333333333333334,6.666666666666667 0,13.333333333333334 0,0"/><g transform="translate(-58.0932639232378, 56.99999999999999)" text-anchor="middle" dominant-baseline="middle" alignment-baseline="middle" dy="1em"><g><rect style="stroke: none" class="background"/><text style="" y="-10.1"><tspan dy="1.1em" y="-0.1em" x="0" class="text-outer-tspan"><tspan font-weight="normal" class="text-inner-tspan" font-style="normal">rule</tspan><tspan font-weight="normal" class="text-inner-tspan" font-style="normal"> match</tspan></tspan></text></g></g></g><g><path class="edge" d="M 82.24999999999993,56.99999999999999 L 142.59326392323769,56.99999999999999 L202.93652784647543,56.99999999999999"/><polygon class="arrow" transform="translate(80.24999999999993,50.33333333333333)" points="0,6.666666666666667 13.333333333333334,0 13.333333333333334,13.333333333333334"/><polygon class="arrow" transform="translate(191.60319451314209,50.33333333333333)" points="13.333333333333334,6.666666666666667 0,13.333333333333334 0,0"/><g transform="translate(142.59326392323769, 56.99999999999999)" text-anchor="middle" dominant-baseline="middle" alignment-baseline="middle" dy="1em"><g><rect style="stroke: none" class="background"/><text style="" y="-10.1"><tspan dy="1.1em" y="-0.1em" x="0" class="text-outer-tspan"><tspan font-weight="normal" class="text-inner-tspan" font-style="normal">req</tspan><tspan font-weight="normal" class="text-inner-tspan" font-style="normal"> resp</tspan></tspan></text></g></g></g></g><g class="architecture-services"><g transform="translate(2.249999999999929,16.999999999999993)" class="architecture-service"><g transform="translate(40, 80)" text-anchor="middle" dominant-baseline="middle" alignment-baseline="middle" dy="1em"><g><rect style="stroke: none" class="background"/><text style="" y="-10.1"><tspan dy="1.1em" y="-0.1em" x="0" class="text-outer-tspan"><tspan font-weight="normal" class="text-inner-tspan" font-style="normal">service</tspan></tspan></text></g></g><g><g><svg viewBox="0 0 256 256" height="80" width="80" xmlns="http://www.w3.org/2000/svg"><defs><linearGradient y2="0%" y1="100%" x2="100%" x1="0%" id="IconifyId19656657a1fa445e40"><stop stop-color="#C8511B" offset="0%"/><stop stop-color="#F90" offset="100%"/></linearGradient></defs><path d="M0 0h256v256H0z" fill="url(#IconifyId19656657a1fa445e40)"/><path d="M89.624 211.2H49.89l43.945-91.853l19.912 40.992zm7.079-100.63a3.22 3.22 0 0 0-2.887-1.805h-.01a3.2 3.2 0 0 0-2.886 1.82L41.913 213.022a3.203 3.203 0 0 0 2.893 4.58l46.848-.001a3.21 3.21 0 0 0 2.9-1.83l25.65-54.08a3.18 3.18 0 0 0-.016-2.762zM207.985 211.2h-39.477L105.174 78.624a3.21 3.21 0 0 0-2.897-1.824h-25.83l.03-32h50.626l63.042 132.573a3.21 3.21 0 0 0 2.897 1.827h14.943zm3.208-38.4h-16.121L132.03 40.227a3.21 3.21 0 0 0-2.9-1.827H73.273a3.206 3.206 0 0 0-3.208 3.197l-.035 38.4c0 .851.333 1.664.94 2.265c.6.602 1.414.938 2.267.938h27.017l63.337 132.576a3.2 3.2 0 0 0 2.893 1.824h44.709a3.203 3.203 0 0 0 3.207-3.2V176c0-1.766-1.434-3.2-3.207-3.2" fill="#FFF"/></svg></g></g></g><g transform="translate(-198.43652784647554,16.999999999999993)" class="architecture-service"><g transform="translate(40, 80)" text-anchor="middle" dominant-baseline="middle" alignment-baseline="middle" dy="1em"><g><rect style="stroke: none" class="background"/><text style="" y="-10.1"><tspan dy="1.1em" y="-0.1em" x="0" class="text-outer-tspan"><tspan font-weight="normal" class="text-inner-tspan" font-style="normal">bus</tspan></tspan></text></g></g><g><g><svg viewBox="0 0 256 256" height="80" width="80" xmlns="http://www.w3.org/2000/svg"><defs><linearGradient y2="0%" y1="100%" x2="100%" x1="0%" id="IconifyId19656657a1fa445e41"><stop stop-color="#B0084D" offset="0%"/><stop stop-color="#FF4F8B" offset="100%"/></linearGradient></defs><path d="M0 0h256v256H0z" fill="url(#IconifyId19656657a1fa445e41)"/><path d="M171.702 211.2c-6.858 0-12.44-5.61-12.44-12.509s5.582-12.509 12.44-12.509s12.438 5.61 12.438 12.51c0 6.898-5.581 12.508-12.438 12.508m-27.278-54.4h-33.071L94.815 128l16.538-28.8h33.071L160.96 128zM88.387 69.818c-6.857 0-12.438-5.61-12.438-12.51c0-6.898 5.581-12.508 12.438-12.508c6.861 0 12.443 5.61 12.443 12.509s-5.582 12.509-12.443 12.509m83.315 109.964c-2.362 0-4.614.458-6.699 1.261l-13.514-22.931l-.713.426L167.39 129.6a3.23 3.23 0 0 0 0-3.2l-18.374-32a3.18 3.18 0 0 0-2.755-1.6h-33.435l.13-.077l-12.39-21.03c4.047-3.469 6.628-8.627 6.628-14.384c0-10.426-8.436-18.909-18.807-18.909c-10.367 0-18.803 8.483-18.803 18.909s8.436 18.909 18.803 18.909c2.365 0 4.618-.458 6.702-1.261l11.567 19.625L88.384 126.4a3.23 3.23 0 0 0 0 3.2l18.377 32c.57.992 1.62 1.6 2.756 1.6h36.744c.264 0 .521-.042.77-.102l12.496 21.21c-4.051 3.468-6.629 8.626-6.629 14.383c0 10.426 8.433 18.909 18.804 18.909s18.803-8.483 18.803-18.909s-8.433-18.909-18.803-18.909m18.968-77.05c-6.857 0-12.436-5.609-12.436-12.508c0-6.9 5.579-12.509 12.436-12.509s12.44 5.61 12.44 12.509c0 6.9-5.582 12.509-12.44 12.509m23.303 23.668l-12.08-21.04c4.592-3.453 7.58-8.944 7.58-15.136c0-10.426-8.432-18.909-18.803-18.909c-2.638 0-5.152.554-7.433 1.549l-9.849-17.155a3.18 3.18 0 0 0-2.756-1.6h-39.448v6.4h37.612l9.11 15.872c-3.703 3.456-6.036 8.374-6.036 13.843c0 10.426 8.433 18.909 18.8 18.909c1.932 0 3.8-.298 5.556-.845L207.545 128l-15.892 27.674l5.512 3.2l16.808-29.274a3.21 3.21 0 0 0 0-3.2m-146.04 50.39c-6.86 0-12.442-5.612-12.442-12.508c0-6.9 5.581-12.51 12.442-12.51c6.857 0 12.439 5.61 12.439 12.51c0 6.896-5.582 12.508-12.44 12.508m10.393 3.236c5.062-3.392 8.41-9.181 8.41-15.744c0-10.426-8.436-18.91-18.803-18.91c-3.004 0-5.833.73-8.353 1.994L48.458 128l18.428-32.093l-5.515-3.2L42.027 126.4a3.21 3.21 0 0 0 0 3.2l12.388 21.568c-3.268 3.405-5.289 8.022-5.289 13.114c0 10.425 8.436 18.908 18.807 18.908c1.562 0 3.074-.214 4.528-.579l10.15 17.68c.57.989 1.62 1.6 2.757 1.6h39.451v-6.4H87.204z" fill="#FFF"/></svg></g></g></g><g transform="translate(202.9365278464754,16.999999999999993)" class="architecture-service"><g transform="translate(40, 80)" text-anchor="middle" dominant-baseline="middle" alignment-baseline="middle" dy="1em"><g><rect style="stroke: none" class="background"/><text style="" y="-10.1"><tspan dy="1.1em" y="-0.1em" x="0" class="text-outer-tspan"><tspan font-weight="normal" class="text-inner-tspan" font-style="normal">api</tspan><tspan font-weight="normal" class="text-inner-tspan" font-style="normal"> gateway</tspan></tspan></text></g></g><g><g><svg viewBox="0 0 256 256" height="80" width="80" xmlns="http://www.w3.org/2000/svg"><defs><linearGradient y2="0%" y1="100%" x2="100%" x1="0%" id="IconifyId19656657a1fa445e42"><stop stop-color="#B0084D" offset="0%"/><stop stop-color="#FF4F8B" offset="100%"/></linearGradient></defs><path d="M0 0h256v256H0z" fill="url(#IconifyId19656657a1fa445e42)"/><path d="M109.008 178.024h9.392v-6.455h-9.392zm15.792 0h9.6v-6.455h-9.6zM86.4 46.814L44.8 67.463v128.356l41.6 14.068zm6.4 40.845v83.91h9.6v6.455h-9.6v36.349a3.24 3.24 0 0 1-1.331 2.62a3.18 3.18 0 0 1-2.887.44l-48-16.23a3.23 3.23 0 0 1-2.182-3.06V65.452c0-1.226.694-2.353 1.789-2.895l48-23.824a3.16 3.16 0 0 1 3.1.155a3.23 3.23 0 0 1 1.511 2.74v39.576h9.6v6.455zm48 90.365h9.6v-6.455h-9.6zm.208-90.365h9.392v-6.455h-9.392zm-16 0h9.392v-6.455h-9.392zm-16 0h9.392v-6.455h-9.392zM211.2 67.463l-41.6-20.649v163.073l41.6-14.068zm6.4 130.68a3.23 3.23 0 0 1-2.182 3.06l-48 16.23a3.17 3.17 0 0 1-2.887-.44a3.24 3.24 0 0 1-1.331-2.62v-36.35h-6.192v-6.454h6.192v-83.91h-6.192v-6.455h6.192V41.628c0-1.117.573-2.153 1.51-2.74a3.16 3.16 0 0 1 3.101-.155l48 23.824a3.23 3.23 0 0 1 1.789 2.895zm-80.211-89.962l-5.978-2.317l-16 41.955l5.978 2.317zm21.673 20.487a3.243 3.243 0 0 0 0-4.563l-12.8-12.91l-4.524 4.564l10.537 10.628l-10.537 10.627l4.524 4.564zm-49.324 12.91l-12.8-12.91a3.243 3.243 0 0 1 0-4.563l12.8-12.91l4.524 4.564l-10.537 10.628l10.537 10.627z" fill="#FFF"/></svg></g></g></g></g><g class="architecture-groups"><rect class="node-bkg" height="182" width="570.873055692951" y="-25.5" x="-240.93652784647554"/><g/></g><style>svg {
    margin-top: -15%;
}
svg path {
    filter: grayscale(100%) brightness(1.5) contrast(1.5);
}

.architecture-service&gt;g&gt;g&gt;svg&gt;rect,
.architecture-service&gt;g&gt;g&gt;svg&gt;g&gt;rect:first-child,
.architecture-service svg path[d^="M0 0h"] {
    fill: transparent !important;
    opacity: 0.2 !important;
}

.architecture-service path:not([d^="M0 0h"]) {
    stroke: white;
}

.node-bkg {
    stroke-dasharray: none !important;
    stroke: transparent !important;
}</style></svg>