<svg aria-roledescription="architecture" role="graphics-document document" viewBox="-182.84327697753906 -65.5 445.6865539550781 262" style="max-width: 445.687px; background-color: transparent;" xmlns:xlink="http://www.w3.org/1999/xlink" xmlns="http://www.w3.org/2000/svg" width="100%" id="my-svg"><style>#my-svg{font-family:"trebuchet ms",verdana,arial,sans-serif;font-size:16px;fill:#ccc;}@keyframes edge-animation-frame{from{stroke-dashoffset:0;}}@keyframes dash{to{stroke-dashoffset:0;}}#my-svg .edge-animation-slow{stroke-dasharray:9,5!important;stroke-dashoffset:900;animation:dash 50s linear infinite;stroke-linecap:round;}#my-svg .edge-animation-fast{stroke-dasharray:9,5!important;stroke-dashoffset:900;animation:dash 20s linear infinite;stroke-linecap:round;}#my-svg .error-icon{fill:#a44141;}#my-svg .error-text{fill:#ddd;stroke:#ddd;}#my-svg .edge-thickness-normal{stroke-width:1px;}#my-svg .edge-thickness-thick{stroke-width:3.5px;}#my-svg .edge-pattern-solid{stroke-dasharray:0;}#my-svg .edge-thickness-invisible{stroke-width:0;fill:none;}#my-svg .edge-pattern-dashed{stroke-dasharray:3;}#my-svg .edge-pattern-dotted{stroke-dasharray:2;}#my-svg .marker{fill:lightgrey;stroke:lightgrey;}#my-svg .marker.cross{stroke:lightgrey;}#my-svg svg{font-family:"trebuchet ms",verdana,arial,sans-serif;font-size:16px;}#my-svg p{margin:0;}#my-svg .edge{stroke-width:3;stroke:lightgrey;fill:none;}#my-svg .arrow{fill:lightgrey;}#my-svg .node-bkg{fill:none;stroke:#cccccc;stroke-width:2px;stroke-dasharray:8;}#my-svg .node-icon-text{display:flex;align-items:center;}#my-svg .node-icon-text&gt;div{color:#fff;margin:1px;height:fit-content;text-align:center;overflow:hidden;display:-webkit-box;-webkit-box-orient:vertical;}#my-svg :root{--mermaid-font-family:"trebuchet ms",verdana,arial,sans-serif;}</style><g/><g class="architecture-edges"><g><path class="edge" d="M -20.34328288059254,57 L 39.999999999999986,57 L100.34328288059251,57"/><polygon class="arrow" transform="translate(89.00994954725918,50.333333333333336)" points="13.333333333333334,6.666666666666667 0,13.333333333333334 0,0"/><g transform="translate(39.999999999999986, 57)" text-anchor="middle" dominant-baseline="middle" alignment-baseline="middle" dy="1em"><g><rect style="stroke: none" class="background"/><text style="" y="-10.1"><tspan dy="1.1em" y="-0.1em" x="0" class="text-outer-tspan"><tspan font-weight="normal" class="text-inner-tspan" font-style="normal">invoke</tspan></tspan></text></g></g></g></g><g class="architecture-services"><g transform="translate(-100.34328288059254,17)" class="architecture-service"><g transform="translate(40, 80)" text-anchor="middle" dominant-baseline="middle" alignment-baseline="middle" dy="1em"><g><rect style="stroke: none" class="background"/><text style="" y="-10.1"><tspan dy="1.1em" y="-0.1em" x="0" class="text-outer-tspan"><tspan font-weight="normal" class="text-inner-tspan" font-style="normal">terminal</tspan></tspan></text></g></g><g><g><svg viewBox="0 0 24 24" height="80" width="80" xmlns="http://www.w3.org/2000/svg"><path d="M10 19h10.5M3.5 5l7 7l-7 7" stroke-linejoin="round" stroke-linecap="round" stroke="currentColor" fill="none"/></svg></g></g></g><g transform="translate(100.34328288059251,17)" class="architecture-service"><g transform="translate(40, 80)" text-anchor="middle" dominant-baseline="middle" alignment-baseline="middle" dy="1em"><g><rect style="stroke: none" class="background"/><text style="" y="-10.1"><tspan dy="1.1em" y="-0.1em" x="0" class="text-outer-tspan"><tspan font-weight="normal" class="text-inner-tspan" font-style="normal">service</tspan></tspan></text></g></g><g><g><svg viewBox="0 0 256 256" height="80" width="80" xmlns="http://www.w3.org/2000/svg"><defs><linearGradient y2="0%" y1="100%" x2="100%" x1="0%" id="IconifyId19656310178b74a650"><stop stop-color="#C8511B" offset="0%"/><stop stop-color="#F90" offset="100%"/></linearGradient></defs><path d="M0 0h256v256H0z" fill="url(#IconifyId19656310178b74a650)"/><path d="M89.624 211.2H49.89l43.945-91.853l19.912 40.992zm7.079-100.63a3.22 3.22 0 0 0-2.887-1.805h-.01a3.2 3.2 0 0 0-2.886 1.82L41.913 213.022a3.203 3.203 0 0 0 2.893 4.58l46.848-.001a3.21 3.21 0 0 0 2.9-1.83l25.65-54.08a3.18 3.18 0 0 0-.016-2.762zM207.985 211.2h-39.477L105.174 78.624a3.21 3.21 0 0 0-2.897-1.824h-25.83l.03-32h50.626l63.042 132.573a3.21 3.21 0 0 0 2.897 1.827h14.943zm3.208-38.4h-16.121L132.03 40.227a3.21 3.21 0 0 0-2.9-1.827H73.273a3.206 3.206 0 0 0-3.208 3.197l-.035 38.4c0 .851.333 1.664.94 2.265c.6.602 1.414.938 2.267.938h27.017l63.337 132.576a3.2 3.2 0 0 0 2.893 1.824h44.709a3.203 3.203 0 0 0 3.207-3.2V176c0-1.766-1.434-3.2-3.207-3.2" fill="#FFF"/></svg></g></g></g></g><g class="architecture-groups"><rect class="node-bkg" height="182" width="365.6865657611851" y="-25.5" x="-142.84328288059254"/><g/></g><style>svg {
    margin-top: -15%;
}
svg path {
    filter: grayscale(100%) brightness(1.5) contrast(1.5);
}

.architecture-service&gt;g&gt;g&gt;svg&gt;rect,
.architecture-service&gt;g&gt;g&gt;svg&gt;g&gt;rect:first-child,
.architecture-service svg path[d^="M0 0h"] {
    fill: transparent !important;
    opacity: 0.2 !important;
}

.architecture-service path:not([d^="M0 0h"]) {
    stroke: white;
}

.node-bkg {
    stroke-dasharray: none !important;
    stroke: transparent !important;
}</style></svg>